<?xml version="1.0" encoding="UTF-8"?>
<!DOCTYPE svg PUBLIC "-//W3C//DTD SVG 1.1//EN" "http://www.w3.org/Graphics/SVG/1.1/DTD/svg11.dtd">
<!-- Creator: CorelDRAW X6 -->
<svg xmlns="http://www.w3.org/2000/svg" xml:space="preserve" width="64.0529mm" height="60.7015mm" version="1.1" style="shape-rendering:geometricPrecision; text-rendering:geometricPrecision; image-rendering:optimizeQuality; fill-rule:evenodd; clip-rule:evenodd"
viewBox="0 0 6074 5756"
 xmlns:xlink="http://www.w3.org/1999/xlink">
 <defs>
  <style type="text/css">
   <![CDATA[
    .str0 {stroke:#2B2A29;stroke-width:18.9646}
    .fil0 {fill:#171717;fill-rule:nonzero}
    .fil1 {fill:#F4F4F4;fill-rule:nonzero}
    .fil2 {fill:#FFCC00;fill-rule:nonzero}
   ]]>
  </style>
 </defs>
 <g id="Слой_x0020_1">
  <metadata id="CorelCorpID_0Corel-Layer"/>
  <rect class="fil0 str0" x="9" y="9" width="6055" height="5737" rx="816" ry="914"/>
 </g>
 <g id="Слой_x0020_1_0">
  <metadata id="CorelCorpID_1Corel-Layer"/>
  <path class="fil1" d="M948 2643l0 -2097 1136 0c229,0 403,19 521,57 119,37 214,104 285,199 71,95 106,201 106,316 0,149 -59,274 -176,376 -118,102 -299,167 -545,194 90,36 158,71 205,105 99,74 192,167 280,279l444 571 -424 0 -339 -436c-99,-127 -181,-223 -244,-290 -65,-66 -122,-113 -173,-140 -50,-26 -102,-45 -155,-55 -38,-7 -100,-10 -188,-10l-393 0 0 931 -340 0zm340 -1171l728 0c155,0 276,-13 363,-40 87,-26 154,-68 198,-126 46,-57 68,-120 68,-188 0,-99 -43,-181 -131,-245 -88,-64 -226,-96 -415,-96l-811 0 0 695zm2239 1171l0 -2097 968 0c170,0 301,7 391,20 126,17 231,50 317,98 85,48 154,115 206,202 52,86 77,181 77,285 0,178 -69,329 -208,452 -139,124 -390,185 -753,185l-658 0 0 855 -340 0zm340 -1101l663 0c220,0 375,-33 467,-100 92,-67 138,-161 138,-282 0,-88 -27,-163 -81,-225 -54,-63 -126,-104 -214,-124 -58,-13 -163,-19 -317,-19l-656 0 0 750z"/>
  <polygon class="fil2" points="4852,3087 3410,5452 2631,5452 1222,3087 1875,3087 2791,4681 3050,5148 3316,4681 4235,3087 "/>
 </g>
</svg>
